<svg width="44" height="54" viewBox="0 0 44 54" fill="none" xmlns="http://www.w3.org/2000/svg">
<path d="M27.634 2C13.4766 2 2 4.50266 2 7.58984C2 10.677 13.4766 13.1797 27.634 13.1797C35.5681 13.1797 42 12.1203 42 10.8134C42 9.50659 35.5681 8.44719 27.634 8.44719C13.4766 8.44719 2 10.9498 2 14.037C2 17.1242 13.4766 19.627 27.634 19.627C35.5681 19.627 42 18.5675 42 17.2606C42 15.9538 35.5681 14.8944 27.634 14.8944C13.4766 14.8944 2 17.4124 2 20.5185C2 23.6246 13.4766 26.1427 27.634 26.1427C35.5681 26.1427 42 25.0833 42 23.7764C42 22.4695 35.5681 21.4102 27.634 21.4102C13.4766 21.4102 2 23.9128 2 27C2 30.0872 13.4766 32.5898 27.634 32.5898C35.5681 32.5898 42 31.5305 42 30.2236C42 28.9167 35.5681 27.8573 27.634 27.8573C13.4766 27.8573 2 30.36 2 33.4472C2 36.5344 13.4766 39.037 27.634 39.037C35.5681 39.037 42 37.9776 42 36.6709C42 35.364 35.5681 34.3045 27.634 34.3045C13.4766 34.3045 2 36.8073 2 39.8943C2 42.9815 13.4766 45.4842 27.634 45.4842C35.5681 45.4842 42 44.4248 42 43.1179C42 41.8112 35.5681 40.7518 27.634 40.7518C13.4766 40.7518 2 43.2697 2 46.3758C2 49.4819 13.4766 52 27.634 52" stroke="#9D7CD2" stroke-width="3" stroke-linecap="round"/>
</svg>
